<svg width="60" height="60" viewBox="0 0 60 60" fill="none" xmlns="http://www.w3.org/2000/svg">
<path d="M58.9415 32.9208C57.8021 31.4711 55.9937 30.8162 54.265 31.0896C52.6889 29.3278 50.0596 28.9158 48.0127 30.1533L47.6643 30.3555C46.0702 28.9121 43.6651 28.6431 41.7761 29.7831L31.4993 35.7433L28.0134 35.3077L32.88 31.8208C34.1746 30.8939 34.9477 29.3891 34.9477 27.7955C34.9477 27.4653 34.9142 27.1325 34.8479 26.8054C34.3086 24.1625 31.8044 22.4547 29.1474 22.9159L28.0963 23.0988C23.8077 23.8446 19.8066 25.4612 16.2037 27.9035C15.8019 28.1759 15.697 28.7225 15.9694 29.1243C16.2417 29.5261 16.7882 29.631 17.1901 29.3587C20.5854 27.057 24.356 25.5336 28.3975 24.8307L29.4486 24.6479C31.1626 24.3498 32.7778 25.452 33.1254 27.1558C33.1682 27.3671 33.1899 27.5823 33.1899 27.7956C33.1899 28.8235 32.6916 29.794 31.8566 30.3917L25.164 35.187C24.8699 35.3977 24.735 35.7672 24.824 36.1178C24.9131 36.4684 25.2079 36.7287 25.5669 36.7736L43.5094 39.0154C43.706 39.0401 43.9049 38.9974 44.074 38.8948L53.3869 33.2475C54.7673 32.4105 56.561 32.7371 57.559 34.0068C58.0058 34.5758 58.2421 35.2587 58.2421 35.9811C58.2421 36.7747 57.9492 37.5361 57.4175 38.125L48.9227 47.5339C48.1142 48.4292 47.0099 49.0064 45.8136 49.159L20.6051 52.3684L19.8521 51.0595L10.3532 34.5464L14.4141 31.4269C14.799 31.1312 14.8713 30.5794 14.5757 30.1944C14.2801 29.8096 13.7282 29.7372 13.3432 30.0328L8.70399 33.5966L0.405611 38.9011C0.0101042 39.154 -0.116927 39.6729 0.117213 40.0799L11.0449 59.0769C11.1647 59.2851 11.3645 59.4352 11.5978 59.4923C11.6667 59.5092 11.7369 59.5175 11.8068 59.5175C11.973 59.5175 12.1376 59.4703 12.2802 59.3791L20.4437 54.161L46.0359 50.9025C47.649 50.6968 49.1375 49.9187 50.2274 48.7118L58.7222 39.3029C59.5463 38.3905 60 37.2107 60 35.981C60 34.877 59.6241 33.7903 58.9415 32.9208ZM42.6651 31.2996C42.67 31.2968 42.6748 31.294 42.6796 31.2911C43.7276 30.656 45.0231 30.6944 46.0203 31.309L37.1565 36.4501L34.3821 36.1035L42.6651 31.2996ZM43.424 37.2332L40.039 36.8103L48.9018 31.6697C48.9068 31.6668 48.9119 31.6639 48.9169 31.6608C50.0245 30.9885 51.3977 31.0662 52.4146 31.7813L43.424 37.2332ZM12.1093 57.402L2.05912 39.9304L8.90485 35.5546L18.3896 52.0424L18.9555 53.026L12.1093 57.402Z" fill="#67BC5E"/>
<path d="M13.6351 49.4988C12.1621 49.4988 10.9636 50.6973 10.9636 52.1703C10.9636 53.6433 12.1621 54.8418 13.6351 54.8418C15.1082 54.8418 16.3067 53.6433 16.3067 52.1703C16.3067 50.6973 15.1082 49.4988 13.6351 49.4988ZM13.6351 53.084C13.1314 53.084 12.7214 52.6741 12.7214 52.1703C12.7214 51.6665 13.1314 51.2566 13.6351 51.2566C14.1389 51.2566 14.5489 51.6665 14.5489 52.1703C14.5489 52.6741 14.1389 53.084 13.6351 53.084Z" fill="#67BC5E"/>
<path d="M27.0326 14.3146C27.4087 14.6808 27.58 15.208 27.4909 15.7255L27.0444 18.3304C26.8269 19.597 27.3375 20.8532 28.3771 21.6085C28.9646 22.0352 29.6516 22.252 30.3437 22.252C30.8764 22.252 31.4119 22.1235 31.9066 21.8635L34.2482 20.6333C34.7116 20.3889 35.2649 20.3886 35.7297 20.634L38.0696 21.8632C39.2067 22.4612 40.5587 22.3637 41.598 21.6092C42.6378 20.8541 43.1488 19.5979 42.932 18.3306L42.4854 15.7248C42.3965 15.208 42.5676 14.6806 42.9427 14.3145L44.8369 12.4696C45.7571 11.5722 46.0818 10.2556 45.6844 9.03353C45.2871 7.81197 44.2507 6.93857 42.9799 6.75412L42.1022 6.62638C41.6213 6.55642 41.1757 6.88923 41.1059 7.36959C41.036 7.84994 41.3687 8.29595 41.8491 8.36591L42.7273 8.49365C43.3405 8.58259 43.8211 8.98759 44.0128 9.57705C44.2047 10.167 44.054 10.7777 43.6101 11.2106L41.7156 13.0558C40.9258 13.8266 40.5659 14.9359 40.753 16.0224L41.1995 18.6272C41.3043 19.2392 41.0671 19.8222 40.5652 20.1867C40.0637 20.551 39.4368 20.5961 38.8875 20.3072L36.5487 19.0786C35.5717 18.5631 34.4051 18.563 33.4294 19.0779L31.0887 20.3074C30.5394 20.5962 29.912 20.5511 29.4103 20.1864C28.9087 19.8219 28.6719 19.2393 28.7769 18.6276L29.2233 16.0232C29.4107 14.9353 29.0502 13.8258 28.2592 13.0554L26.3669 11.2111C25.9226 10.7779 25.7719 10.167 25.9637 9.57716C26.1555 8.98771 26.636 8.58271 27.2498 8.49365L29.8665 8.11279C30.9587 7.95388 31.9019 7.26834 32.389 6.27986L33.5602 3.90822C33.8338 3.35251 34.3675 3.02076 34.9878 3.02076C35.608 3.02076 36.1423 3.35275 36.4169 3.90916L37.5874 6.27962C37.7073 6.52255 37.8558 6.74966 38.0287 6.95451C38.3417 7.32552 38.8962 7.37228 39.2672 7.05927C39.6382 6.74626 39.6851 6.19173 39.372 5.82072C39.2909 5.72462 39.2208 5.6174 39.1637 5.50162L37.993 3.13103C37.4242 1.97873 36.2727 1.26306 34.9878 1.26306C33.702 1.26306 32.5507 1.97919 31.9837 3.13091L30.8126 5.5022C30.581 5.97212 30.1328 6.29779 29.6134 6.37337L26.9971 6.75423C25.7258 6.93869 24.6894 7.81208 24.2922 9.03365C23.8948 10.2557 24.2195 11.5723 25.1399 12.4699L27.0326 14.3146Z" fill="#67BC5E"/>
<path d="M16.5746 5.66447L18.8747 6.79006C19.2199 6.95893 19.5875 7.0392 19.9506 7.0392C20.8062 7.0392 21.6372 6.5933 22.0898 5.80943L22.2078 5.60494C22.8524 4.48838 22.5194 3.0499 21.4495 2.33037L19.3247 0.901269C18.7606 0.521934 18.0572 0.392207 17.3949 0.545488C16.7326 0.698887 16.1578 1.12439 15.8178 1.71326L15.5246 2.22115C15.1847 2.8099 15.1034 3.52041 15.3018 4.17068C15.5001 4.82119 15.9639 5.36553 16.5746 5.66447ZM17.0469 3.10018L17.3401 2.59228C17.4387 2.42131 17.599 2.3026 17.7915 2.25807C17.8451 2.24564 17.899 2.23955 17.9526 2.23955C18.0908 2.23955 18.2256 2.28045 18.3437 2.3599L20.4686 3.789C20.7747 3.9949 20.8701 4.40658 20.6856 4.72615L20.5676 4.93064C20.3831 5.25021 19.979 5.3735 19.6476 5.21131L17.3474 4.08572C17.1701 3.99889 17.0408 3.84713 16.9832 3.65834C16.9257 3.46955 16.9481 3.27115 17.0469 3.10018Z" fill="#67BC5E"/>
<path d="M53.4015 20.0271L51.1014 18.9015C49.9432 18.335 48.5311 18.7656 47.8865 19.882L47.7685 20.0864C47.7685 20.0864 47.7685 20.0865 47.7683 20.0865C47.1238 21.2031 47.4569 22.6414 48.5267 23.361L50.6515 24.7902C51.0603 25.0651 51.5422 25.2089 52.0286 25.2089C52.2135 25.2089 52.399 25.1882 52.5814 25.1459C53.2437 24.9925 53.8185 24.5668 54.1585 23.9781L54.4517 23.4702C54.7916 22.8814 54.8728 22.1708 54.6744 21.5205C54.4762 20.8703 54.0122 20.3259 53.4015 20.0271ZM52.9293 22.5913L52.6361 23.0992C52.5374 23.2702 52.3771 23.3889 52.1848 23.4334C51.9926 23.4778 51.7964 23.4417 51.6325 23.3316L49.5076 21.9023C49.2015 21.6964 49.1062 21.2849 49.2905 20.9653L49.4086 20.7608C49.5932 20.4412 49.9973 20.318 50.3287 20.4801L52.6288 21.6057C52.8061 21.6925 52.9355 21.8442 52.993 22.033C53.0507 22.2221 53.0281 22.4203 52.9293 22.5913Z" fill="#67BC5E"/>
<path d="M13.5381 14.9388C13.9943 15.3648 14.5996 15.6014 15.2204 15.6014C15.2759 15.6014 15.3316 15.5995 15.3872 15.5957L17.9419 15.4203C19.2284 15.3322 20.2359 14.253 20.2359 12.9636V12.7276C20.2359 11.4383 19.2282 10.3591 17.9419 10.2709L15.3871 10.0957C14.7084 10.0485 14.0347 10.2886 13.5379 10.7525C13.041 11.2165 12.756 11.8725 12.756 12.5523V13.1388C12.7562 13.8189 13.0412 14.4749 13.5381 14.9388ZM14.514 12.5524C14.514 12.355 14.5935 12.1721 14.7377 12.0374C14.8698 11.9141 15.0384 11.8477 15.2172 11.8477C15.2337 11.8477 15.2503 11.8482 15.267 11.8494L17.8218 12.0246C18.1898 12.0498 18.4782 12.3587 18.4782 12.7277V12.9637C18.4782 13.3327 18.19 13.6416 17.8218 13.6668L15.267 13.8421C15.0693 13.8554 14.882 13.7887 14.7377 13.6541C14.5935 13.5193 14.514 13.3365 14.514 13.1391V12.5524Z" fill="#67BC5E"/>
<path d="M54.589 10.0958L52.0342 10.271C50.7478 10.3593 49.7402 11.4384 49.7402 12.7277V12.9638C49.7402 14.2532 50.7479 15.3322 52.0342 15.4205L54.589 15.5958C54.6446 15.5997 54.7003 15.6015 54.7557 15.6015C55.3766 15.6015 55.9819 15.3648 56.4381 14.9389C56.935 14.475 57.22 13.819 57.22 13.1392V12.5527C57.22 11.8729 56.935 11.2168 56.4381 10.7529C55.9412 10.2887 55.2676 10.0492 54.589 10.0958ZM55.2384 12.0374C55.3827 12.1722 55.4622 12.355 55.4622 12.5524V13.1389C55.4622 13.3364 55.3827 13.5192 55.2384 13.654C55.0942 13.7888 54.9067 13.8559 54.7092 13.842L52.1543 13.6666C51.7862 13.6414 51.4979 13.3325 51.4979 12.9636V12.7276C51.4979 12.3586 51.7862 12.0498 52.1544 12.0245L54.7092 11.8493C54.726 11.8481 54.7425 11.8475 54.759 11.8475C54.9377 11.8478 55.1064 11.9141 55.2384 12.0374Z" fill="#67BC5E"/>
<path d="M18.8748 18.9014L16.5747 20.027C15.9641 20.3259 15.5002 20.8702 15.3018 21.5205C15.1035 22.1707 15.1846 22.8814 15.5246 23.4701L15.8179 23.9781C16.1578 24.5669 16.7327 24.9925 17.395 25.1459C17.5775 25.1881 17.763 25.2089 17.9478 25.2089C18.4342 25.2089 18.9161 25.0652 19.3247 24.7902L21.4497 23.361C22.5196 22.6415 22.8527 21.2031 22.2079 20.0863L22.0899 19.8819V19.8821C21.4451 18.7655 20.0331 18.3348 18.8748 18.9014ZM20.4686 21.9025L18.3436 23.3317C18.1798 23.4418 17.9836 23.4778 17.7914 23.4336C17.599 23.389 17.4388 23.2703 17.3402 23.0995L17.0468 22.5914C16.9482 22.4205 16.9255 22.2223 16.9831 22.0335C17.0407 21.8447 17.17 21.693 17.3473 21.6062L19.6475 20.4807C19.7461 20.4323 19.8514 20.4094 19.9552 20.4094C20.2001 20.4094 20.4379 20.537 20.5674 20.7613V20.7614L20.6854 20.9657C20.8701 21.2849 20.7747 21.6966 20.4686 21.9025Z" fill="#67BC5E"/>
<path d="M47.8864 5.80947C48.3389 6.59346 49.1698 7.03936 50.0255 7.03924C50.3887 7.03924 50.7563 6.95885 51.1014 6.7901L53.4016 5.6644C54.0122 5.36557 54.4762 4.82123 54.6744 4.17084C54.8727 3.52057 54.7915 2.81006 54.4517 2.22131L54.1584 1.7133C53.8184 1.12455 53.2436 0.698928 52.5812 0.545529C51.9188 0.392248 51.2155 0.52174 50.6514 0.901193L48.5264 2.33041C47.4566 3.05006 47.1236 4.48842 47.7682 5.60498L47.8864 5.80947ZM49.5077 3.78904L51.6326 2.35983C51.7506 2.28037 51.8855 2.23947 52.0237 2.23947C52.0772 2.23947 52.1311 2.24557 52.1848 2.25799C52.3771 2.30252 52.5374 2.42123 52.6361 2.59209L52.9294 3.1001C53.0281 3.27108 53.0507 3.46912 52.9932 3.65803C52.9356 3.84694 52.8062 3.99869 52.6289 4.08541L50.3289 5.211C49.9977 5.3733 49.5934 5.25002 49.4087 4.93033L49.2907 4.72596C49.1062 4.40662 49.2014 3.99494 49.5077 3.78904Z" fill="#67BC5E"/>
</svg>
