<svg width="56" height="60" viewBox="0 0 56 60" fill="none" xmlns="http://www.w3.org/2000/svg">
<path d="M33.7404 33.8673H22.4853C21.9998 33.8673 21.6064 34.2607 21.6064 34.7462C21.6064 35.2317 21.9998 35.6251 22.4853 35.6251H33.7404C34.2259 35.6251 34.6193 35.2317 34.6193 34.7462C34.6193 34.2607 34.2259 33.8673 33.7404 33.8673Z" fill="#67BC5E"/>
<path d="M22.2824 27.9372V25.445H23.8723C24.3578 25.445 24.7512 25.0516 24.7512 24.5661C24.7512 24.0805 24.3578 23.6871 23.8723 23.6871H22.2824V22.1992H24.0855C24.571 22.1992 24.9644 21.8058 24.9644 21.3203C24.9644 20.8348 24.571 20.4414 24.0855 20.4414H21.4035C20.918 20.4414 20.5246 20.8348 20.5246 21.3203V27.9372C20.5246 28.4227 20.918 28.8161 21.4035 28.8161C21.889 28.8161 22.2824 28.4227 22.2824 27.9372Z" fill="#67BC5E"/>
<path d="M30.9162 22.1993C31.4017 22.1993 31.7951 21.8059 31.7951 21.3204C31.7951 20.8349 31.4017 20.4415 30.9162 20.4415H28.2343C27.7487 20.4415 27.3553 20.8349 27.3553 21.3204V27.9373C27.3553 28.4228 27.7487 28.8162 28.2343 28.8162C28.7198 28.8162 29.1132 28.4228 29.1132 27.9373V25.4451H30.703C31.1886 25.4451 31.5819 25.0517 31.5819 24.5662C31.5819 24.0807 31.1886 23.6873 30.703 23.6873H29.1132V22.1993H30.9162Z" fill="#67BC5E"/>
<path d="M37.3561 22.1426C37.8417 22.1426 38.2351 21.7492 38.2351 21.2637C38.2351 20.7782 37.8417 20.3848 37.3561 20.3848H34.5731C34.0876 20.3848 33.6942 20.7782 33.6942 21.2637V27.8685C33.6942 28.354 34.0876 28.7474 34.5731 28.7474H37.3561C37.8417 28.7474 38.2351 28.354 38.2351 27.8685C38.2351 27.383 37.8417 26.9896 37.3561 26.9896H35.452V25.4449H37.151C37.6365 25.4449 38.0299 25.0515 38.0299 24.566C38.0299 24.0805 37.6365 23.6871 37.151 23.6871H35.452V22.1426H37.3561Z" fill="#67BC5E"/>
<path d="M46.2346 22.9655C46.2346 21.5258 45.0193 20.3544 43.5254 20.3544H41.7541C41.7537 20.3544 41.7534 20.3544 41.753 20.3544C41.7527 20.3544 41.7523 20.3544 41.752 20.3544C41.2665 20.3544 40.8731 20.7478 40.8731 21.2333V27.899C40.8731 28.3845 41.2665 28.7779 41.752 28.7779C42.2375 28.7779 42.6309 28.3845 42.6309 27.899V26.1331L44.6961 28.4797C44.8697 28.6771 45.1124 28.7779 45.3562 28.7779C45.5624 28.7779 45.7695 28.7057 45.9365 28.5588C46.3008 28.2382 46.3362 27.6827 46.0156 27.3184L44.3684 25.4469C45.4506 25.1043 46.2346 24.1217 46.2346 22.9655ZM43.5253 23.819C43.3174 23.819 42.9711 23.8204 42.6401 23.8219C42.6385 23.4999 42.6364 22.4498 42.6355 22.1121H43.5253C44.041 22.1121 44.4767 22.5029 44.4767 22.9654C44.4768 23.4282 44.0411 23.819 43.5253 23.819Z" fill="#67BC5E"/>
<path d="M13.9772 20.417C11.6549 20.417 9.7655 22.3064 9.7655 24.6287C9.7655 26.951 11.6549 28.8404 13.9772 28.8404C16.2996 28.8404 18.1891 26.951 18.1891 24.6287C18.1891 22.3064 16.2996 20.417 13.9772 20.417ZM13.9772 27.0826C12.6241 27.0826 11.5233 25.9818 11.5233 24.6287C11.5233 23.2757 12.6242 22.1748 13.9772 22.1748C15.3303 22.1748 16.4312 23.2757 16.4312 24.6287C16.4312 25.9818 15.3304 27.0826 13.9772 27.0826Z" fill="#67BC5E"/>
<path d="M55.427 27.6404L51.215 23.3811V4.18406C51.215 1.87699 49.338 0 47.0308 0H9.19433C6.88726 0 5.01015 1.87699 5.01015 4.18406V23.0625L0.539803 27.675C0.522108 27.6933 0.505819 27.7125 0.489999 27.7318C0.230897 28.0085 0.0837097 28.3736 0.0837097 28.7689V55.7361C0.0837097 58.0873 1.99644 60 4.34769 60H51.6523C54.0034 60 55.9163 58.0873 55.9163 55.7361V28.7565C55.9163 28.3216 55.7375 27.9236 55.427 27.6404ZM53.0818 27.7688L51.215 28.8553V25.881L53.0818 27.7688ZM5.01015 28.9864L2.90453 27.7609L5.01015 25.5884V28.9864ZM54.1585 55.7361C54.1585 57.118 53.0342 58.2422 51.6523 58.2422H4.34769C2.96582 58.2422 1.84152 57.118 1.84152 55.7361V29.1759L27.0006 43.8197C27.001 43.8199 27.0014 43.8202 27.0019 43.8204L46.3424 55.0774C46.4815 55.1583 46.6335 55.1968 46.7837 55.1968C47.0864 55.1968 47.3809 55.0404 47.5442 54.7598C47.7883 54.3404 47.6461 53.8023 47.2266 53.5581L29.7473 43.3843L45.2277 34.3741C45.6473 34.1299 45.7894 33.5918 45.5453 33.1724C45.301 32.7529 44.7628 32.6107 44.3435 32.8548L28.1152 42.3006C28.0442 42.3417 27.9564 42.3418 27.8853 42.3006L26.1789 41.3074C26.1787 41.3073 26.1783 41.3071 26.178 41.307L6.76797 30.0095V4.18406C6.76797 2.84625 7.8564 1.75781 9.19433 1.75781H47.0308C48.3686 1.75781 49.457 2.84625 49.457 4.18406V29.8785L47.4517 31.0457C47.0322 31.2898 46.89 31.8279 47.1341 32.2473C47.3785 32.667 47.9165 32.8089 48.3359 32.5649L50.753 31.158C50.7563 31.1563 50.7594 31.1542 50.7627 31.1524L54.1585 29.1759V55.7361Z" fill="#67BC5E"/>
<path d="M23.0077 17.6352H33.218C34.2702 17.6352 35.1262 16.7791 35.1262 15.727V9.05882C35.1262 8.00659 34.2701 7.15066 33.218 7.15066H31.0338V6.21234C31.0338 5.07257 30.1066 4.14539 28.9668 4.14539H27.2588C26.119 4.14539 25.1918 5.07257 25.1918 6.21234V7.15066H23.0076C21.9554 7.15066 21.0994 8.00671 21.0994 9.05882V15.727C21.0995 16.7792 21.9556 17.6352 23.0077 17.6352ZM26.9498 6.21234C26.9498 6.04195 27.0885 5.9032 27.2589 5.9032H28.9669C29.1373 5.9032 29.2761 6.04195 29.2761 6.21234V7.15066H26.9498V6.21234ZM22.8574 9.05882C22.8574 8.97585 22.9247 8.90847 23.0077 8.90847H33.218C33.301 8.90847 33.3684 8.97585 33.3684 9.05882V15.727C33.3684 15.81 33.301 15.8774 33.218 15.8774H23.0077C22.9247 15.8774 22.8574 15.81 22.8574 15.727V9.05882Z" fill="#67BC5E"/>
</svg>
