<svg width="44" height="60" viewBox="0 0 44 60" fill="none" xmlns="http://www.w3.org/2000/svg">
<path d="M43.0938 51.594C42.6082 51.594 42.2148 51.9875 42.2148 52.4729V56.7773C42.2148 57.5851 41.5578 58.2422 40.75 58.2422H3.25C2.44223 58.2422 1.78516 57.5851 1.78516 56.7773V11.2229C1.78516 10.7375 1.39164 10.344 0.90625 10.344C0.420859 10.344 0.0273438 10.7375 0.0273438 11.2229V56.7773C0.0273438 58.5543 1.47297 60 3.25 60H40.75C42.5269 60 43.9727 58.5543 43.9727 56.7773V52.4729C43.9727 51.9875 43.5793 51.594 43.0938 51.594Z" fill="#67BC5E"/>
<path d="M43.7153 16.6637L27.3091 0.257461C27.1441 0.0925781 26.9206 0 26.6875 0H3.25C1.47297 0 0.0273438 1.44563 0.0273438 3.22266V7.42488C0.0273438 7.91027 0.420859 8.30379 0.90625 8.30379C1.39164 8.30379 1.78516 7.91027 1.78516 7.42488V3.22266C1.78516 2.41488 2.44223 1.75781 3.25 1.75781H25.8086V14.9414C25.8086 16.7184 27.2543 18.1641 29.0312 18.1641H42.2148V48.7229C42.2148 49.2083 42.6082 49.6018 43.0938 49.6018C43.5793 49.6018 43.9727 49.2083 43.9727 48.7229V17.2852C43.9727 17.0521 43.8801 16.8285 43.7153 16.6637ZM27.5664 14.9414V3.0007L40.972 16.4062H29.0312C28.2235 16.4062 27.5664 15.7492 27.5664 14.9414Z" fill="#67BC5E"/>
<path d="M10.6328 30.1758C12.0868 30.1758 13.2695 28.993 13.2695 27.5391C13.2695 26.0851 12.0868 24.9023 10.6328 24.9023C9.17887 24.9023 7.99609 26.0851 7.99609 27.5391C7.99609 28.993 9.17887 30.1758 10.6328 30.1758ZM10.6328 26.6602C11.1175 26.6602 11.5117 27.0544 11.5117 27.5391C11.5117 28.0238 11.1175 28.418 10.6328 28.418C10.1481 28.418 9.75391 28.0238 9.75391 27.5391C9.75391 27.0544 10.1481 26.6602 10.6328 26.6602Z" fill="#67BC5E"/>
<path d="M18.6016 30.1758H33.3672C34.821 30.1758 36.0039 28.993 36.0039 27.5391C36.0039 26.0851 34.821 24.9023 33.3672 24.9023H18.6016C17.1476 24.9023 15.9648 26.0851 15.9648 27.5391C15.9648 28.993 17.1476 30.1758 18.6016 30.1758ZM18.6016 26.6602H33.3672C33.8519 26.6602 34.2461 27.0544 34.2461 27.5391C34.2461 28.0238 33.8519 28.418 33.3672 28.418H18.6016C18.1169 28.418 17.7227 28.0238 17.7227 27.5391C17.7227 27.0544 18.1169 26.6602 18.6016 26.6602Z" fill="#67BC5E"/>
<path d="M10.6328 37.207C12.0868 37.207 13.2695 36.0243 13.2695 34.5703C13.2695 33.1164 12.0868 31.9336 10.6328 31.9336C9.17887 31.9336 7.99609 33.1164 7.99609 34.5703C7.99609 36.0243 9.17887 37.207 10.6328 37.207ZM10.6328 33.6914C11.1175 33.6914 11.5117 34.0856 11.5117 34.5703C11.5117 35.055 11.1175 35.4492 10.6328 35.4492C10.1481 35.4492 9.75391 35.055 9.75391 34.5703C9.75391 34.0856 10.1481 33.6914 10.6328 33.6914Z" fill="#67BC5E"/>
<path d="M18.6016 37.207H33.3672C34.821 37.207 36.0039 36.0243 36.0039 34.5703C36.0039 33.1164 34.821 31.9336 33.3672 31.9336H18.6016C17.1476 31.9336 15.9648 33.1164 15.9648 34.5703C15.9648 36.0243 17.1476 37.207 18.6016 37.207ZM18.6016 33.6914H33.3672C33.8519 33.6914 34.2461 34.0856 34.2461 34.5703C34.2461 35.055 33.8519 35.4492 33.3672 35.4492H18.6016C18.1169 35.4492 17.7227 35.055 17.7227 34.5703C17.7227 34.0856 18.1169 33.6914 18.6016 33.6914Z" fill="#67BC5E"/>
<path d="M10.6328 44.2383C12.0868 44.2383 13.2695 43.0555 13.2695 41.6016C13.2695 40.1476 12.0868 38.9648 10.6328 38.9648C9.17887 38.9648 7.99609 40.1476 7.99609 41.6016C7.99609 43.0555 9.17887 44.2383 10.6328 44.2383ZM10.6328 40.7227C11.1175 40.7227 11.5117 41.1169 11.5117 41.6016C11.5117 42.0863 11.1175 42.4805 10.6328 42.4805C10.1481 42.4805 9.75391 42.0863 9.75391 41.6016C9.75391 41.1169 10.1481 40.7227 10.6328 40.7227Z" fill="#67BC5E"/>
<path d="M18.6016 44.2383H20.1521C20.6375 44.2383 21.031 43.8448 21.031 43.3594C21.031 42.874 20.6375 42.4805 20.1521 42.4805H18.6016C18.1169 42.4805 17.7227 42.0863 17.7227 41.6016C17.7227 41.1169 18.1169 40.7227 18.6016 40.7227H33.3672C33.8519 40.7227 34.2461 41.1169 34.2461 41.6016C34.2461 42.0863 33.8519 42.4805 33.3672 42.4805H23.902C23.4164 42.4805 23.023 42.874 23.023 43.3594C23.023 43.8448 23.4164 44.2383 23.902 44.2383H33.3672C34.821 44.2383 36.0039 43.0555 36.0039 41.6016C36.0039 40.1476 34.821 38.9648 33.3672 38.9648H18.6016C17.1476 38.9648 15.9648 40.1476 15.9648 41.6016C15.9648 43.0555 17.1476 44.2383 18.6016 44.2383Z" fill="#67BC5E"/>
</svg>
